<svg width="40" height="40" viewBox="0 0 40 40" fill="none" xmlns="http://www.w3.org/2000/svg">
<path fill-rule="evenodd" clip-rule="evenodd" d="M20.0006 1.24988C30.3557 1.25016 38.7506 9.64471 38.7506 19.9999C38.7506 30.355 30.3557 38.7496 20.0006 38.7499C9.64522 38.7499 1.24951 30.3552 1.24951 19.9999C1.24951 9.64454 9.64522 1.24988 20.0006 1.24988ZM28.0363 14.2954C28.036 14.2058 27.9316 14.1557 27.8615 14.2117L20.3343 20.2332C20.1387 20.3897 19.8614 20.3897 19.6657 20.2332L12.1385 14.2117C12.0685 14.1557 11.9651 14.2058 11.9648 14.2954V23.2079C11.9648 23.5292 12.1085 23.8341 12.3572 24.0376L17.4643 28.2156C17.713 28.4191 17.8577 28.724 17.8577 29.0453V36.4689C18.5591 36.5592 19.2746 36.607 20.0006 36.607C20.7267 36.607 21.4419 36.5593 22.1434 36.4689V29.0453C22.1434 28.724 22.2871 28.4191 22.5358 28.2156L27.6429 24.0376C27.8916 23.8341 28.0363 23.5292 28.0363 23.2079V14.2954ZM20.0006 3.39274C10.8287 3.39274 3.39342 10.828 3.39342 19.9999C3.39342 27.4949 8.35859 33.8285 15.1791 35.8945V29.8625C15.1791 29.7019 15.1065 29.5499 14.9824 29.4481L9.67864 25.109C9.42992 24.9055 9.28627 24.6007 9.28627 24.2793V11.3939C9.28641 11.0982 9.52621 10.8582 9.82199 10.8582H11.5882C11.8315 10.8582 12.0678 10.9416 12.2578 11.0936L19.5988 16.9656C19.8335 17.1533 20.1666 17.1533 20.4013 16.9656L27.7423 11.0936C27.9322 10.9416 28.1686 10.8582 28.4119 10.8582H30.1791C30.4747 10.8585 30.7147 11.0983 30.7148 11.3939V24.2793C30.7148 24.6007 30.5701 24.9055 30.3214 25.109L25.0176 29.4481C24.8935 29.5499 24.822 29.7019 24.822 29.8625V35.8945C31.642 33.8282 36.6077 27.4946 36.6077 19.9999C36.6077 10.8282 29.1722 3.39302 20.0006 3.39274Z" fill="#533AFD"/>
</svg>
